<svg width="10" height="10" viewBox="0 0 10 10" fill="none" xmlns="http://www.w3.org/2000/svg">
<path d="M5.62109 0.405357L5.72168 0.426842C5.94796 0.492632 6.12606 0.664433 6.21387 0.88485L6.39941 1.38485C6.80621 2.56394 7.02637 3.83044 7.02637 5.14754C7.02627 6.4644 6.80616 7.73038 6.39941 8.90926L6.21387 9.40926C6.126 9.62946 5.9478 9.80152 5.72168 9.86727L5.62109 9.88876C5.31472 9.93227 5.06637 9.78702 4.92578 9.56258C4.78664 9.34007 4.75163 9.03856 4.85938 8.75887L5.0127 8.33407C5.34777 7.33319 5.5292 6.26137 5.5293 5.14754C5.5293 4.03347 5.34782 2.96113 5.0127 1.96004L4.85938 1.53524C4.75149 1.25562 4.78679 0.954122 4.92578 0.731529C5.06638 0.507006 5.31463 0.361785 5.62109 0.405357ZM2.51758 1.01083C2.88289 0.84111 3.31552 1.00993 3.49023 1.37997L3.68164 1.81454C4.10078 2.84292 4.33203 3.96872 4.33203 5.14754C4.33192 6.32611 4.10071 7.45141 3.68164 8.47958L3.49023 8.91415C3.31536 9.28384 2.88273 9.45295 2.51758 9.28329L2.44531 9.24422C2.07834 9.02106 2.01032 8.5528 2.17871 8.18172L2.32812 7.83016C2.65467 6.99949 2.83387 6.0943 2.83398 5.14754C2.83398 4.20054 2.65473 3.29484 2.32812 2.46395L2.17871 2.11239C2.01011 1.74136 2.0785 1.27323 2.44531 1.04989L2.51758 1.01083ZM8.70117 2.39462C8.82295 2.4261 8.93439 2.50928 9.01855 2.64657L9.17676 2.92489C9.52501 3.58908 9.72168 4.34575 9.72168 5.14754C9.72154 5.94905 9.52492 6.70525 9.17676 7.36922L9.01855 7.64754C8.9345 7.78442 8.82331 7.86938 8.70215 7.90243C8.58146 7.93513 8.45647 7.91551 8.34961 7.85848C8.13615 7.74435 7.98721 7.47994 8.03711 7.16415L8.10547 6.67001C8.16436 6.17348 8.19528 5.66777 8.19531 5.15536C8.19531 4.64272 8.16438 4.13646 8.10547 3.63973L8.03711 3.14559C7.98703 2.82986 8.13622 2.56273 8.34863 2.44442C8.4552 2.38527 8.57999 2.3635 8.70117 2.39462ZM0.929688 3.46688C1.21182 3.48315 1.47655 3.69816 1.54297 4.07528L1.58398 4.33797C1.61882 4.60264 1.63672 4.87344 1.63672 5.14754C1.63668 5.42145 1.6188 5.69167 1.58398 5.95614L1.54297 6.21883C1.47641 6.59565 1.2117 6.81097 0.929688 6.82723C0.681703 6.84119 0.435733 6.70057 0.317383 6.41512L0.274414 6.28426C0.185741 5.91996 0.138741 5.53895 0.138672 5.14754C0.138672 4.75601 0.185751 4.37428 0.274414 4.00985L0.317383 3.87899C0.435718 3.59343 0.681646 3.45291 0.929688 3.46688Z" fill="url(#paint0_linear_7_182)"/>
<defs>
<linearGradient id="paint0_linear_7_182" x1="9.72168" y1="5.14696" x2="0.138672" y2="5.14696" gradientUnits="userSpaceOnUse">
<stop stop-color="#FF5900"/>
<stop offset="1" stop-color="#FF1E0A"/>
</linearGradient>
</defs>
</svg>
